<svg width="183" height="29" viewBox="0 0 183 29" fill="none" xmlns="http://www.w3.org/2000/svg">
<path d="M22.46 25.7882C22.1699 26.0299 21.626 26.3562 20.8283 26.7672C20.0548 27.1781 19.0999 27.5407 17.9638 27.855C16.8277 28.1692 15.5707 28.3143 14.1928 28.2901C12.0897 28.2417 10.2042 27.867 8.5363 27.166C6.89252 26.4408 5.49048 25.4618 4.33017 24.229C3.19404 22.9962 2.3238 21.582 1.71948 19.9866C1.11515 18.3912 0.812984 16.687 0.812984 14.874C0.812984 12.8435 1.11515 10.9821 1.71948 9.29001C2.34798 7.59789 3.2303 6.13541 4.36643 4.90258C5.52674 3.66976 6.90461 2.71492 8.50004 2.03807C10.0955 1.36122 11.8601 1.0228 13.7939 1.0228C15.5828 1.0228 17.1661 1.26453 18.544 1.74799C19.9218 2.23145 21.0459 2.75118 21.9161 3.30716L19.8493 8.27473C19.245 7.81545 18.4352 7.34407 17.4199 6.86061C16.4288 6.35297 15.2806 6.09915 13.9752 6.09915C12.96 6.09915 11.981 6.31671 11.0382 6.75183C10.1196 7.16277 9.29775 7.75501 8.57255 8.52855C7.87153 9.30209 7.31555 10.2086 6.90461 11.248C6.49367 12.2633 6.2882 13.3753 6.2882 14.5839C6.2882 15.8651 6.46949 17.0375 6.83209 18.1011C7.21886 19.1647 7.76276 20.0833 8.46378 20.8568C9.1648 21.6062 9.99877 22.1864 10.9657 22.5973C11.9568 23.0083 13.0688 23.2137 14.3016 23.2137C15.7278 23.2137 16.9485 22.9841 17.9638 22.5248C18.9791 22.0655 19.7526 21.582 20.2844 21.0744L22.46 25.7882ZM24.7177 28L36.756 0.261345H37.046L49.0842 28H42.9926L35.3056 8.49229L39.1128 5.8816L29.9029 28H24.7177ZM32.9487 18.3549H40.9621L42.8113 22.7786H31.317L32.9487 18.3549ZM61.0604 1.31287C62.7284 1.31287 64.215 1.53043 65.5204 1.96555C66.8257 2.37649 67.9135 2.98082 68.7837 3.77853C69.6781 4.55207 70.355 5.49483 70.8143 6.60679C71.2736 7.69458 71.5032 8.92741 71.5032 10.3053C71.5032 11.3931 71.334 12.4809 70.9956 13.5686C70.6813 14.6564 70.1495 15.6475 69.4002 16.5419C68.675 17.4363 67.708 18.1615 66.4994 18.7175C65.2907 19.2493 63.792 19.5152 62.0032 19.5152H58.2322V28H52.9745V1.31287H61.0604ZM61.9669 14.4389C62.7646 14.4389 63.4294 14.3059 63.9612 14.04C64.493 13.7741 64.904 13.4357 65.194 13.0248C65.5083 12.6138 65.7258 12.1908 65.8467 11.7557C65.9917 11.2964 66.0643 10.8733 66.0643 10.4866C66.0643 10.1965 66.0159 9.8339 65.9192 9.39878C65.8467 8.9395 65.6775 8.48021 65.4116 8.02092C65.1457 7.56163 64.7347 7.17486 64.1788 6.86061C63.6469 6.54636 62.9218 6.38923 62.0032 6.38923H58.2322V14.4389H61.9669ZM66.8982 17.7023L73.4975 28H67.3696L60.6253 17.8473L66.8982 17.7023ZM89.6237 1.31287H107.826V6.38923H94.8814V12.082H106.339V17.1584H94.8814V22.9236H108.334V28H89.6237V1.31287ZM110.764 28L122.802 0.261345H123.092L135.13 28H129.039L121.351 8.49229L125.159 5.8816L115.949 28H110.764ZM118.995 18.3549H127.008L128.857 22.7786H117.363L118.995 18.3549ZM153.27 7.7671C152.255 7.21112 151.216 6.75183 150.152 6.38923C149.113 6.02663 148.134 5.84534 147.215 5.84534C146.079 5.84534 145.185 6.07498 144.532 6.53427C143.879 6.99356 143.553 7.68249 143.553 8.60107C143.553 9.22957 143.795 9.79764 144.278 10.3053C144.786 10.7887 145.426 11.2239 146.2 11.6106C146.998 11.9974 147.819 12.3479 148.666 12.6622C149.439 12.9522 150.2 13.3027 150.95 13.7137C151.723 14.1005 152.412 14.596 153.017 15.2003C153.621 15.7805 154.104 16.5178 154.467 17.4122C154.83 18.2824 155.011 19.3581 155.011 20.6393C155.011 21.993 154.66 23.25 153.959 24.4103C153.258 25.5706 152.231 26.5134 150.877 27.2385C149.524 27.9396 147.856 28.2901 145.874 28.2901C144.858 28.2901 143.819 28.1934 142.755 28C141.716 27.7824 140.688 27.4682 139.673 27.0572C138.658 26.6221 137.679 26.0782 136.736 25.4256L139.057 21.3282C139.685 21.7875 140.362 22.1985 141.087 22.561C141.837 22.8995 142.586 23.1654 143.335 23.3588C144.085 23.5521 144.774 23.6488 145.402 23.6488C146.031 23.6488 146.659 23.5642 147.288 23.395C147.94 23.2016 148.472 22.8874 148.883 22.4523C149.318 22.0172 149.536 21.4128 149.536 20.6393C149.536 20.1075 149.354 19.624 148.992 19.1889C148.653 18.7538 148.182 18.3549 147.578 17.9923C146.998 17.6297 146.357 17.3155 145.656 17.0496C144.834 16.7353 143.988 16.3727 143.118 15.9618C142.248 15.5508 141.426 15.0553 140.652 14.4751C139.903 13.8708 139.286 13.1335 138.803 12.2633C138.344 11.3689 138.114 10.2811 138.114 8.99993C138.114 7.45285 138.452 6.11124 139.129 4.9751C139.83 3.83897 140.809 2.94456 142.066 2.29189C143.323 1.61504 144.774 1.24036 146.417 1.16784C148.569 1.16784 150.309 1.42166 151.639 1.92929C152.992 2.43693 154.201 3.04125 155.265 3.74227L153.27 7.7671ZM167.086 19.6965L157.259 1.31287H163.75L170.639 15.1641L169.08 15.2729L175.861 1.31287H182.351L172.343 19.6965V28H167.086V19.6965Z" fill="#C57F29"/>
</svg>
