<svg width="34" height="26" viewBox="0 0 34 26" fill="none" xmlns="http://www.w3.org/2000/svg">
<path d="M4.63059 0.812012L3.23559 2.20701L12.5632 12.0648V16.1851H18.0476V12.6062L4.63059 0.812012ZM2.84465 3.63435V9.28045L3.1266 9.47029C3.8691 9.96248 4.16301 10.4617 4.24668 10.8625C4.32965 11.2703 4.21644 11.6219 3.97598 11.9101C3.49363 12.4937 2.57605 12.775 1.67465 11.8679L0.780273 12.7679C2.12887 14.1109 4.02379 13.8297 4.94769 12.7258C5.41035 12.1703 5.64871 11.3969 5.48559 10.6094C5.34144 9.90623 4.87246 9.2242 4.11027 8.6406V4.97029L2.84465 3.63435ZM20.9867 7.32576V17.4508H7.97887C9.56793 17.8586 10.8336 19.1031 11.2625 20.6851H22.6953C23.2226 18.7445 25.0015 17.3101 27.1039 17.3101C29.2062 17.3101 30.9851 18.7445 31.5125 20.6851H33.2211V14.7367L28.9882 7.32576H20.9867ZM23.5179 8.31013H27.8843L31.7304 14.7789H23.5179V8.94295V8.31013ZM0.913164 17.4508L1.72176 20.6851H2.44246C2.87277 19.1031 4.13629 17.8586 5.72887 17.4508H0.913164ZM6.85387 18.5758C5.02012 18.5758 3.54777 20.0453 3.54777 21.8804C3.54777 23.7156 5.02012 25.1851 6.85387 25.1851C8.68902 25.1851 10.1586 23.7156 10.1586 21.8804C10.1586 20.0453 8.68902 18.5758 6.85387 18.5758ZM27.1039 18.5758C25.2687 18.5758 23.7992 20.0453 23.7992 21.8804C23.7992 23.7156 25.2687 25.1851 27.1039 25.1851C28.939 25.1851 30.4086 23.7156 30.4086 21.8804C30.4086 20.0453 28.939 18.5758 27.1039 18.5758Z" fill="black"/>
</svg>
