<svg width="54" height="26" viewBox="0 0 54 26" fill="none" xmlns="http://www.w3.org/2000/svg">
<rect width="54" height="26" rx="13" fill="#D09751"/>
<path d="M15.1285 16.5H14.1041V8.373H18.6456V9.2722H15.1285V12.1519H18.4294V13.0511H15.1285V16.5ZM24.8834 16.5L23.9046 13.9845H20.6834L19.7159 16.5H18.6801L21.8557 8.33885H22.7777L25.942 16.5H24.8834ZM22.6867 10.6153C22.6639 10.5546 22.6259 10.4446 22.5728 10.2852C22.5197 10.1259 22.4666 9.96273 22.4135 9.79579C22.3679 9.62126 22.33 9.48847 22.2997 9.39741C22.2617 9.54917 22.22 9.70473 22.1744 9.86409C22.1365 10.0159 22.0948 10.1562 22.0492 10.2852C22.0113 10.4142 21.9772 10.5243 21.9468 10.6153L21.0248 13.0739H23.5972L22.6867 10.6153ZM33.9226 12.4251C33.9226 13.0853 33.8316 13.6848 33.6495 14.2235C33.4749 14.7623 33.2131 15.2176 32.8641 15.5894C32.515 15.9612 32.0787 16.2344 31.5551 16.4089L33.5015 18.435H32.0332L30.4624 16.6024C30.4169 16.6024 30.3675 16.6024 30.3144 16.6024C30.2689 16.61 30.2234 16.6138 30.1778 16.6138C29.5404 16.6138 28.9865 16.5152 28.516 16.3179C28.0455 16.113 27.6548 15.8284 27.3436 15.4642C27.0325 15.0924 26.8011 14.6485 26.6493 14.1325C26.4975 13.6165 26.4217 13.0436 26.4217 12.4137C26.4217 11.579 26.5583 10.8506 26.8314 10.2283C27.1046 9.60609 27.5182 9.12044 28.0721 8.77138C28.6336 8.42232 29.3393 8.24779 30.1892 8.24779C31.0012 8.24779 31.6841 8.42232 32.238 8.77138C32.792 9.11285 33.2093 9.5985 33.4901 10.2283C33.7785 10.8506 33.9226 11.5828 33.9226 12.4251ZM27.503 12.4251C27.503 13.1081 27.5978 13.6961 27.7875 14.1894C27.9773 14.6826 28.2694 15.062 28.664 15.3276C29.0662 15.5932 29.5708 15.726 30.1778 15.726C30.7925 15.726 31.2933 15.5932 31.6803 15.3276C32.0749 15.062 32.367 14.6826 32.5568 14.1894C32.7465 13.6961 32.8413 13.1081 32.8413 12.4251C32.8413 11.4007 32.6288 10.6001 32.2039 10.0234C31.779 9.43915 31.1074 9.147 30.1892 9.147C29.5746 9.147 29.0662 9.27979 28.664 9.54538C28.2694 9.80338 27.9773 10.179 27.7875 10.6722C27.5978 11.1579 27.503 11.7422 27.503 12.4251ZM39.5597 14.8154C39.5597 15.21 39.4611 15.5401 39.2638 15.8057C39.0665 16.0713 38.7857 16.2724 38.4215 16.4089C38.0573 16.5455 37.6247 16.6138 37.1239 16.6138C36.699 16.6138 36.331 16.5797 36.0198 16.5114C35.7163 16.4431 35.4469 16.3482 35.2117 16.2268V15.3162C35.4545 15.4376 35.7467 15.5515 36.0881 15.6577C36.4372 15.7564 36.79 15.8057 37.1467 15.8057C37.6551 15.8057 38.0231 15.726 38.2508 15.5666C38.4784 15.3997 38.5922 15.1796 38.5922 14.9065C38.5922 14.7547 38.5505 14.6181 38.467 14.4967C38.3836 14.3753 38.2318 14.2539 38.0117 14.1325C37.7993 14.0111 37.492 13.8745 37.0898 13.7227C36.6952 13.5709 36.3575 13.4192 36.0767 13.2674C35.796 13.1156 35.5797 12.9335 35.428 12.7211C35.2762 12.5086 35.2003 12.2354 35.2003 11.9015C35.2003 11.3855 35.409 10.9871 35.8263 10.7064C36.2513 10.4256 36.8052 10.2852 37.4882 10.2852C37.86 10.2852 38.2052 10.3232 38.524 10.3991C38.8502 10.4674 39.1538 10.566 39.4345 10.695L39.0931 11.4918C38.9261 11.4159 38.7478 11.3514 38.5581 11.2983C38.376 11.2376 38.1901 11.192 38.0004 11.1617C37.8107 11.1237 37.6172 11.1048 37.4199 11.1048C37.0101 11.1048 36.6952 11.1731 36.4751 11.3096C36.2627 11.4386 36.1564 11.617 36.1564 11.8446C36.1564 12.0116 36.2057 12.1557 36.3044 12.2771C36.403 12.391 36.5662 12.5048 36.7938 12.6186C37.0291 12.7249 37.3402 12.8539 37.7272 13.0056C38.1142 13.1498 38.4443 13.2978 38.7175 13.4495C38.9906 13.6013 39.1993 13.7872 39.3435 14.0073C39.4877 14.2197 39.5597 14.4891 39.5597 14.8154Z" fill="white"/>
</svg>
