<svg width="88" height="26" viewBox="0 0 88 26" fill="none" xmlns="http://www.w3.org/2000/svg">
<rect width="87.2647" height="25.6103" rx="12.8051" fill="#D09751"/>
<path d="M22.0699 8.17817L19.9073 16.3052H18.8715L17.2894 10.9782C17.2438 10.8189 17.1983 10.6557 17.1528 10.4888C17.1072 10.3219 17.0655 10.1625 17.0276 10.0107C16.9896 9.85897 16.9555 9.72997 16.9251 9.62373C16.9024 9.50991 16.8872 9.42644 16.8796 9.37332C16.872 9.42644 16.8568 9.50991 16.8341 9.62373C16.8189 9.72997 16.7923 9.85897 16.7544 10.0107C16.7164 10.1625 16.6747 10.3256 16.6292 10.5002C16.5912 10.6671 16.5457 10.8379 16.4926 11.0124L14.956 16.3052H13.9202L11.7689 8.17817H12.8389L14.1023 13.1409C14.1478 13.3154 14.1896 13.4899 14.2275 13.6645C14.2654 13.8314 14.2996 13.9984 14.3299 14.1653C14.3679 14.3246 14.3982 14.4802 14.421 14.632C14.4438 14.7837 14.4665 14.9317 14.4893 15.0759C14.5121 14.9241 14.5348 14.7686 14.5576 14.6092C14.5879 14.4499 14.6221 14.2867 14.66 14.1198C14.698 13.9452 14.7397 13.7707 14.7852 13.5962C14.8308 13.4216 14.8763 13.2509 14.9218 13.084L16.356 8.17817H17.4146L18.9057 13.1181C18.9588 13.2926 19.0081 13.471 19.0536 13.6531C19.0991 13.8276 19.1409 13.9984 19.1788 14.1653C19.2168 14.3322 19.2471 14.4954 19.2699 14.6547C19.3002 14.8065 19.3268 14.9469 19.3496 15.0759C19.3723 14.8862 19.4027 14.6889 19.4406 14.484C19.4786 14.2715 19.5241 14.0515 19.5772 13.8238C19.6303 13.5962 19.6872 13.3647 19.7479 13.1295L21 8.17817H22.0699ZM24.1835 10.1929C24.1835 10.337 24.1759 10.485 24.1607 10.6368C24.1532 10.7885 24.1418 10.9251 24.1266 11.0465H24.1949C24.3239 10.8341 24.487 10.6595 24.6843 10.5229C24.8816 10.3864 25.1017 10.2839 25.3445 10.2156C25.5873 10.1397 25.8377 10.1018 26.0957 10.1018C26.589 10.1018 26.9987 10.1815 27.325 10.3408C27.6589 10.4926 27.9093 10.7316 28.0763 11.0579C28.2432 11.3842 28.3267 11.8091 28.3267 12.3327V16.3052H27.3364V12.401C27.3364 11.9078 27.2264 11.5398 27.0063 11.2969C26.7863 11.0541 26.441 10.9327 25.9705 10.9327C25.5152 10.9327 25.1586 11.02 24.9006 11.1945C24.6426 11.3614 24.4567 11.6119 24.3429 11.9457C24.2366 12.272 24.1835 12.6742 24.1835 13.1523V16.3052H23.1819V7.65458H24.1835V10.1929ZM32.5286 10.1018C33.2723 10.1018 33.8224 10.2649 34.1791 10.5912C34.5357 10.9175 34.7141 11.4373 34.7141 12.1506V16.3052H33.9856L33.7921 15.4401H33.7466C33.572 15.6602 33.3899 15.8461 33.2002 15.9979C33.0181 16.142 32.8056 16.2483 32.5628 16.3166C32.3276 16.3849 32.0392 16.419 31.6977 16.419C31.3335 16.419 31.0034 16.3545 30.7075 16.2255C30.4191 16.0965 30.1915 15.8992 30.0245 15.6336C29.8576 15.3604 29.7741 15.019 29.7741 14.6092C29.7741 14.0021 30.0131 13.5355 30.4912 13.2092C30.9693 12.8753 31.7053 12.6932 32.6994 12.6628L33.7352 12.6287V12.2644C33.7352 11.756 33.6251 11.4032 33.4051 11.2059C33.185 11.0086 32.8739 10.9099 32.4717 10.9099C32.153 10.9099 31.8495 10.9593 31.5611 11.0579C31.2728 11.149 31.0034 11.2552 30.753 11.3766L30.4457 10.6254C30.7113 10.4812 31.0262 10.3598 31.3904 10.2611C31.7546 10.1549 32.1341 10.1018 32.5286 10.1018ZM32.8246 13.3571C32.0658 13.3875 31.5384 13.5089 31.2424 13.7214C30.9541 13.9339 30.8099 14.2336 30.8099 14.6206C30.8099 14.9621 30.9123 15.2125 31.1172 15.3718C31.3297 15.5312 31.5991 15.6109 31.9254 15.6109C32.4414 15.6109 32.8701 15.4705 33.2116 15.1897C33.5531 14.9014 33.7238 14.4612 33.7238 13.8694V13.323L32.8246 13.3571ZM38.6358 15.5995C38.7876 15.5995 38.9431 15.5881 39.1025 15.5653C39.2618 15.535 39.3908 15.5046 39.4895 15.4743V16.2369C39.3832 16.29 39.2315 16.3317 39.0342 16.3621C38.8369 16.4 38.6472 16.419 38.4651 16.419C38.1464 16.419 37.8504 16.3659 37.5772 16.2596C37.3117 16.1458 37.0954 15.9523 36.9285 15.6791C36.7615 15.406 36.678 15.0228 36.678 14.5295V10.9782H35.813V10.5002L36.6894 10.1018L37.0878 8.8042H37.6797V10.2042H39.444V10.9782H37.6797V14.5068C37.6797 14.8786 37.767 15.1556 37.9415 15.3377C38.1236 15.5122 38.355 15.5995 38.6358 15.5995ZM47.8174 12.8563C47.7718 12.697 47.7263 12.5414 47.6808 12.3896C47.6352 12.2303 47.5935 12.0823 47.5556 11.9457C47.5252 11.8016 47.4949 11.6688 47.4645 11.5474C47.4342 11.4259 47.4114 11.3235 47.3962 11.24H47.3507C47.3355 11.3235 47.3127 11.4259 47.2824 11.5474C47.2596 11.6688 47.2293 11.8016 47.1913 11.9457C47.161 12.0899 47.123 12.2417 47.0775 12.401C47.0396 12.5528 46.994 12.7084 46.9409 12.8677L45.8482 16.2938H44.71L43.0368 10.1929H44.0726L44.9149 13.4482C44.9756 13.6683 45.0325 13.8921 45.0856 14.1198C45.1387 14.3398 45.1842 14.5523 45.2222 14.7572C45.2677 14.9545 45.2981 15.1252 45.3132 15.2694H45.3588C45.3815 15.1783 45.4081 15.0645 45.4385 14.9279C45.4688 14.7913 45.4992 14.6471 45.5295 14.4954C45.5675 14.3436 45.6054 14.1919 45.6433 14.0401C45.6889 13.8883 45.7306 13.7517 45.7685 13.6303L46.8499 10.1929H47.9426L48.9897 13.6303C49.0429 13.8049 49.096 13.9908 49.1491 14.1881C49.2098 14.3854 49.2629 14.5789 49.3085 14.7686C49.354 14.9507 49.3843 15.1138 49.3995 15.258H49.445C49.4602 15.129 49.4868 14.9696 49.5247 14.7799C49.5702 14.5826 49.6196 14.3702 49.6727 14.1425C49.7334 13.9073 49.7941 13.6759 49.8548 13.4482L50.7085 10.1929H51.7329L50.0369 16.2938H48.8645L47.8174 12.8563ZM55.1833 10.0904C55.7069 10.0904 56.1546 10.2042 56.5264 10.4319C56.9058 10.6595 57.1941 10.982 57.3914 11.3994C57.5963 11.8091 57.6988 12.291 57.6988 12.8449V13.4482H53.5214C53.5366 14.1387 53.7111 14.6661 54.045 15.0304C54.3865 15.387 54.8608 15.5653 55.4678 15.5653C55.8548 15.5653 56.1963 15.5312 56.4922 15.4629C56.7958 15.387 57.1069 15.2808 57.4256 15.1442V16.0206C57.1145 16.1572 56.8071 16.2559 56.5036 16.3166C56.2001 16.3849 55.8396 16.419 55.4223 16.419C54.8456 16.419 54.3334 16.3014 53.8857 16.0661C53.4456 15.8309 53.1003 15.4819 52.8499 15.019C52.6071 14.5485 52.4856 13.9756 52.4856 13.3002C52.4856 12.6325 52.5957 12.0596 52.8157 11.5815C53.0434 11.1034 53.3583 10.7354 53.7605 10.4774C54.1702 10.2194 54.6445 10.0904 55.1833 10.0904ZM55.1719 10.9099C54.6938 10.9099 54.3144 11.0655 54.0336 11.3766C53.7605 11.6801 53.5973 12.1051 53.5442 12.6514H56.6516C56.6516 12.3024 56.5985 11.9989 56.4922 11.7409C56.386 11.4829 56.2229 11.2818 56.0028 11.1376C55.7903 10.9858 55.5134 10.9099 55.1719 10.9099ZM64.5825 16.419C63.8237 16.419 63.2166 16.1572 62.7613 15.6336C62.306 15.1024 62.0784 14.3133 62.0784 13.2661C62.0784 12.2189 62.306 11.4297 62.7613 10.8986C63.2242 10.3598 63.8351 10.0904 64.5939 10.0904C64.9126 10.0904 65.1896 10.1321 65.4248 10.2156C65.66 10.2915 65.8649 10.3977 66.0395 10.5343C66.214 10.6709 66.362 10.8227 66.4834 10.9896H66.5517C66.5441 10.891 66.5289 10.7468 66.5061 10.5571C66.491 10.3598 66.4834 10.2042 66.4834 10.0904V7.65458H67.485V16.3052H66.6769L66.5289 15.4856H66.4834C66.362 15.6602 66.214 15.8195 66.0395 15.9637C65.8649 16.1003 65.6562 16.2103 65.4134 16.2938C65.1782 16.3773 64.9012 16.419 64.5825 16.419ZM64.7419 15.5881C65.3869 15.5881 65.8384 15.4136 66.0964 15.0645C66.362 14.7079 66.4947 14.1729 66.4947 13.4596V13.2775C66.4947 12.5186 66.3695 11.9381 66.1191 11.536C65.8687 11.1262 65.4058 10.9213 64.7305 10.9213C64.1917 10.9213 63.7857 11.1376 63.5126 11.5701C63.247 11.9951 63.1142 12.568 63.1142 13.2889C63.1142 14.0173 63.247 14.5826 63.5126 14.9848C63.7857 15.387 64.1955 15.5881 64.7419 15.5881ZM74.7269 13.2433C74.7269 13.7517 74.6586 14.2032 74.522 14.5978C74.393 14.9848 74.2033 15.3149 73.9529 15.5881C73.71 15.8613 73.4103 16.0699 73.0536 16.2141C72.7046 16.3507 72.3138 16.419 71.8813 16.419C71.4791 16.419 71.1073 16.3507 70.7658 16.2141C70.4243 16.0699 70.1284 15.8613 69.878 15.5881C69.6276 15.3149 69.4303 14.9848 69.2861 14.5978C69.1495 14.2032 69.0812 13.7517 69.0812 13.2433C69.0812 12.568 69.195 11.9989 69.4227 11.536C69.6503 11.0655 69.9766 10.7089 70.4016 10.466C70.8265 10.2156 71.3311 10.0904 71.9154 10.0904C72.4694 10.0904 72.955 10.2156 73.3724 10.466C73.7973 10.7089 74.1274 11.0655 74.3626 11.536C74.6054 11.9989 74.7269 12.568 74.7269 13.2433ZM70.117 13.2433C70.117 13.7214 70.1777 14.1387 70.2991 14.4954C70.4281 14.8444 70.6254 15.1138 70.891 15.3035C71.1566 15.4932 71.4943 15.5881 71.904 15.5881C72.3138 15.5881 72.6515 15.4932 72.9171 15.3035C73.1826 15.1138 73.3761 14.8444 73.4976 14.4954C73.6266 14.1387 73.6911 13.7214 73.6911 13.2433C73.6911 12.7577 73.6266 12.3441 73.4976 12.0026C73.3686 11.6612 73.1713 11.3994 72.9057 11.2173C72.6477 11.0276 72.31 10.9327 71.8926 10.9327C71.2704 10.9327 70.8189 11.1376 70.5381 11.5474C70.2574 11.9571 70.117 12.5224 70.117 13.2433Z" fill="white"/>
</svg>
